<svg xmlns="http://www.w3.org/2000/svg" width="800" height="800"><g transform="translate(-116.847 -69.013)scale(12.92821)"><ellipse cx="39.978" cy="42.255" fill="#4a90e2" rx="20.103" ry="17.87" style="stroke-width:1.11685"/><ellipse cx="22.595" cy="31.301" fill="#357abd" rx="5.584" ry="12.285" style="stroke-width:1.11685" transform="rotate(-15)"/><ellipse cx="54.637" cy="10.606" fill="#357abd" rx="5.584" ry="12.285" style="stroke-width:1.11685" transform="rotate(15)"/><ellipse cx="22.306" cy="32.379" fill="#4a90e2" rx="2.792" ry="6.701" style="stroke-width:1.11685" transform="rotate(-15)"/><ellipse cx="54.926" cy="11.685" fill="#4a90e2" rx="2.792" ry="6.701" style="stroke-width:1.11685" transform="rotate(15)"/><ellipse cx="34.394" cy="37.788" fill="#fff" rx="3.909" ry="4.467" style="stroke-width:1.11685"/><ellipse cx="45.563" cy="37.788" fill="#fff" rx="3.909" ry="4.467" style="stroke-width:1.11685"/><ellipse cx="34.394" cy="38.346" fill="#2d3748" rx="2.792" ry="3.351" style="stroke-width:1.11685"/><ellipse cx="45.563" cy="38.346" fill="#2d3748" rx="2.792" ry="3.351" style="stroke-width:1.11685"/><ellipse cx="33.277" cy="36.671" fill="#fff" rx="1.117" ry="1.675" style="stroke-width:1.11685"/><ellipse cx="44.446" cy="36.671" fill="#fff" rx="1.117" ry="1.675" style="stroke-width:1.11685"/><ellipse cx="39.978" cy="44.489" fill="#357abd" rx="1.675" ry="1.117" style="stroke-width:1.11685"/><path fill="none" stroke="#357abd" stroke-width="1.117" d="M37.745 46.723q2.233 1.675 4.467 0"/></g><g transform="translate(-100.2 -100.2)scale(12.50498)"><circle cx="60.548" cy="23.614" r="11.193" fill="#10b981" opacity=".9" style="stroke-width:1.11929"/><path d="M64.1 25.398q0 1.187-.8 1.843-.794.65-2.355.708v1.148h-.715V27.97q-1.41-.052-2.197-.662-.787-.617-1.036-1.883l1.679-.308q.124.741.491 1.089.374.34 1.063.406v-2.564q-.02-.013-.099-.026-.078-.02-.104-.02-1.063-.242-1.607-.57-.538-.335-.833-.84-.295-.511-.295-1.246 0-1.089.747-1.685.755-.597 2.19-.65v-.878h.716v.878q.859.033 1.43.276.577.236.924.702.354.459.57 1.318l-1.73.256q-.099-.571-.388-.88-.282-.314-.806-.386v2.308l.072.013q.19 0 1.154.315.97.315 1.45.932.478.61.478 1.534zm-3.87-5.128q-1.22.091-1.22 1.049 0 .288.098.479.105.19.295.314.197.125.827.335zm2.164 5.154q0-.328-.118-.53-.118-.21-.348-.342-.223-.131-.983-.347v2.406q1.45-.098 1.45-1.187z" aria-label="$" style="font-weight:700;font-size:13.4315px;font-family:Arial,sans-serif;text-anchor:middle;fill:#fff;stroke-width:1.11929"/></g></svg>